<svg xmlns="http://www.w3.org/2000/svg" width="512" height="512" viewBox="0 0 512 512"><defs><linearGradient id="g" x1="0" y1="0" x2="1" y2="1"><stop stop-color="#b8d5d1"/><stop offset=".5" stop-color="#638b88"/><stop offset="1" stop-color="#d4e1d5"/></linearGradient><filter id="n"><feTurbulence baseFrequency=".5" numOctaves="3" seed="24"/><feColorMatrix values=".2 0 0 0 .3 0 .2 0 0 .34 0 0 .2 0 .32 0 0 0 .4 0"/></filter></defs><rect width="512" height="512" fill="url(#g)"/><rect width="512" height="512" filter="url(#n)" opacity=".28"/><g fill="none" stroke="#253d3d" stroke-width="8"><path d="M260 250L90 54M260 250L444 72M260 250L476 330M260 250L318 488M260 250L48 422"/><path d="M260 250l-21-126m21 126l98 44m-98-44l-87 83" stroke-width="4"/></g><g fill="none" stroke="#eefaf2" stroke-width="3" opacity=".65"><path d="M264 246L94 50M264 246L448 68M264 246L480 326M264 246L322 484M264 246L52 418"/></g><circle cx="260" cy="250" r="22" fill="#334f4e"/></svg>
