<svg xmlns="http://www.w3.org/2000/svg" width="512" height="512" viewBox="0 0 512 512">
  <defs>
    <linearGradient id="glass" x1="0" y1="0" x2="1" y2="1">
      <stop offset="0" stop-color="#7198a5"/>
      <stop offset=".46" stop-color="#4f7684"/>
      <stop offset="1" stop-color="#86a9b3"/>
    </linearGradient>
    <pattern id="etch" width="128" height="128" patternUnits="userSpaceOnUse" patternTransform="rotate(28)">
      <path d="M18-16v160M23-16v160" stroke="#edf9fb" stroke-width="2" opacity=".38"/>
      <path d="M82-16v160" stroke="#294e5b" stroke-width="1.5" opacity=".26"/>
    </pattern>
    <pattern id="grain" width="64" height="64" patternUnits="userSpaceOnUse">
      <path d="M8 13h28m17 31h34M22 57h19" stroke="#f7ffff" stroke-width="1.2" opacity=".11"/>
      <circle cx="72" cy="16" r="2" fill="#294d5a" opacity=".1"/>
      <circle cx="13" cy="42" r="1.5" fill="#f4ffff" opacity=".17"/>
    </pattern>
    <pattern id="micro" width="64" height="64" patternUnits="userSpaceOnUse">
      <circle cx="9" cy="13" r="2.1" fill="#f4ffff" opacity=".42"/>
      <circle cx="37" cy="49" r="3.2" fill="#234a57" opacity=".28"/>
      <circle cx="57" cy="22" r="2.6" fill="#dfffff" opacity=".38"/>
      <path d="M4 61l17-4m22-31l18-5M28 57l11-3" stroke="#e8ffff" stroke-width="1.5" opacity=".27"/>
      <path d="M16 34l19-5m14 34l12-3" stroke="#294f5c" stroke-width="1.8" opacity=".25"/>
    </pattern>
    <pattern id="wipe" width="256" height="256" patternUnits="userSpaceOnUse">
      <path d="M-31 179c67-89 172-101 309-47M-26 203c85-73 183-75 303-29" fill="none" stroke="#e9ffff" stroke-width="7" opacity=".035"/>
    </pattern>
  </defs>
  <rect width="512" height="512" fill="url(#glass)"/>
  <rect width="512" height="512" fill="url(#etch)"/>
  <rect width="512" height="512" fill="url(#grain)"/>
  <rect width="512" height="512" fill="url(#micro)"/>
  <rect width="512" height="512" fill="url(#wipe)"/>
  <path d="M-40 405L175 190M337 578l215-215" stroke="#effcff" stroke-width="7" opacity=".08"/>
</svg>
