<svg xmlns="http://www.w3.org/2000/svg" width="512" height="512" viewBox="0 0 512 512">
  <defs>
    <pattern id="steel" width="64" height="64" patternUnits="userSpaceOnUse">
      <rect width="64" height="64" fill="#6f6258"/>
      <path d="M0 8h64M0 23h64M0 39h64M0 55h64" stroke="#c1b19e" stroke-width="1" opacity=".055"/>
      <path d="M7 16h31m7 14h16M4 48h43" stroke="#2c2927" stroke-width="1.4" opacity=".1"/>
      <circle cx="13" cy="11" r="2" fill="#d4c6b3" opacity=".12"/>
      <circle cx="51" cy="44" r="3" fill="#302b29" opacity=".13"/>
    </pattern>
    <pattern id="grinders" width="128" height="128" patternUnits="userSpaceOnUse">
      <rect y="36" width="128" height="56" rx="8" fill="#191c1d" opacity=".78"/>
      <path d="M-16 78L0 48l16 30 16-30 16 30 16-30 16 30 16-30 16 30 16-30 16 30 16-30 16 30" fill="#a99a87" stroke="#292827" stroke-width="4" stroke-linejoin="round"/>
      <path d="M0 104h128" stroke="#d7a54d" stroke-width="9" opacity=".72"/>
      <path d="M-8 104l24-18m8 36l24-18m8 36l24-18m8 36l24-18m8 36l24-18" stroke="#292522" stroke-width="8" opacity=".82"/>
      <circle cx="14" cy="16" r="5" fill="#302c29"/>
      <circle cx="114" cy="16" r="5" fill="#302c29"/>
      <circle cx="14" cy="16" r="2" fill="#c6b7a4" opacity=".7"/>
      <circle cx="114" cy="16" r="2" fill="#c6b7a4" opacity=".7"/>
    </pattern>
    <pattern id="micro" width="64" height="64" patternUnits="userSpaceOnUse">
      <path d="M3 8h29m12 0h22M9 22h54M1 39h24m13 0h29M6 56h58" stroke="#d0c0ad" stroke-width=".8" opacity=".24"/>
      <path d="M8 13h47M2 31h61M13 48h51M5 63h38" stroke="#211f1e" stroke-width="1" opacity=".31"/>
      <circle cx="18" cy="28" r="3.8" fill="#241f1d" opacity=".4"/>
      <circle cx="56" cy="51" r="2.8" fill="#dbcbb8" opacity=".36"/>
      <path d="M11 60l19-6m17-31l14-4" stroke="#342d29" stroke-width="2.3" opacity=".36"/>
    </pattern>
  </defs>
  <rect width="512" height="512" fill="url(#steel)"/>
  <rect width="512" height="512" fill="url(#grinders)"/>
  <rect width="512" height="512" fill="url(#micro)"/>
</svg>
