<svg xmlns="http://www.w3.org/2000/svg" width="512" height="512" viewBox="0 0 512 512">
  <rect width="512" height="512" fill="#59656a"/>

  <!-- Short, inset brushing marks add metal grain without touching a tile edge. -->
  <path d="M8 9h38M71 9h29M137 9h44M205 9h26M267 9h41M335 9h34M397 9h43M465 9h31
           M18 43h27M84 43h43M150 43h31M215 43h42M281 43h23M344 43h45M414 43h28M473 43h21
           M7 76h29M66 76h51M139 76h36M203 76h47M274 76h33M335 76h52M409 76h30M469 76h25
           M17 119h38M82 119h29M147 119h45M215 119h32M279 119h42M347 119h29M414 119h39M478 119h18
           M9 137h42M75 137h31M140 137h48M210 137h35M270 137h43M339 137h38M405 137h42M471 137h24
           M19 171h27M86 171h40M151 171h34M220 171h39M285 171h29M349 171h44M418 171h30M476 171h19
           M8 204h31M70 204h49M142 204h37M207 204h45M276 204h35M340 204h50M412 204h33M472 204h22
           M16 247h40M81 247h30M146 247h46M214 247h34M278 247h43M346 247h31M413 247h41M479 247h17
           M9 265h36M73 265h34M138 265h46M207 265h37M272 265h39M337 265h47M407 265h35M468 265h26
           M18 299h28M84 299h43M150 299h32M216 299h43M283 299h27M345 299h46M416 299h31M475 299h19
           M8 332h31M68 332h51M141 332h38M205 332h47M275 332h34M339 332h51M411 332h34M471 332h23
           M17 375h39M82 375h29M147 375h45M215 375h32M279 375h42M347 375h29M414 375h39M478 375h18
           M9 393h42M75 393h31M140 393h48M210 393h35M270 393h43M339 393h38M405 393h42M471 393h24
           M19 427h27M86 427h40M151 427h34M220 427h39M285 427h29M349 427h44M418 427h30M476 427h19
           M8 460h31M70 460h49M142 460h37M207 460h45M276 460h35M340 460h50M412 460h33M472 460h22
           M16 503h40M81 503h30M146 503h46M214 503h34M278 503h43M346 503h31M413 503h41M479 503h17"
        fill="none" stroke="#c7cfca" stroke-width="1.15" stroke-linecap="round" opacity=".18"/>

  <!-- One centered directional-tooth column. Its wide side margins keep every
       tooth intact on slopes instead of cropping outer columns at the edges. -->
  <path d="M96 111L256 20L416 111L256 76Z
           M96 239L256 148L416 239L256 204Z
           M96 367L256 276L416 367L256 332Z
           M96 495L256 404L416 495L256 460Z"
        fill="#aeb28d" stroke="#273238" stroke-width="7" stroke-linejoin="round"/>
  <path d="M150 101L256 82L362 101
           M150 229L256 210L362 229
           M150 357L256 338L362 357
           M150 485L256 466L362 485"
        fill="none" stroke="#687168" stroke-width="2.4" stroke-linecap="round" opacity=".58"/>

</svg>
