<svg xmlns="http://www.w3.org/2000/svg" width="512" height="512" viewBox="0 0 512 512">
  <defs>
    <pattern id="rubber" width="64" height="64" patternUnits="userSpaceOnUse">
      <rect width="64" height="64" fill="#66857e"/>
      <circle cx="11" cy="17" r="2" fill="#d2ded9" opacity=".07"/>
      <circle cx="46" cy="39" r="4" fill="#2e4b46" opacity=".08"/>
      <path d="M5 55l15-6m22-35l11-5" stroke="#e1e8e4" stroke-width="2" opacity=".04"/>
    </pattern>
    <pattern id="chevrons" width="128" height="128" patternUnits="userSpaceOnUse">
      <path d="M-26 22L38 64-26 106M38 22l64 42-64 42m64-84l64 42-64 42" fill="none" stroke="#9db8b1" stroke-width="18" stroke-linejoin="round" opacity=".55"/>
      <path d="M-26 18L38 60-26 102M38 18l64 42-64 42m64-84l64 42-64 42" fill="none" stroke="#d1dfda" stroke-width="4" stroke-linejoin="round" opacity=".22"/>
    </pattern>
    <pattern id="micro" width="64" height="64" patternUnits="userSpaceOnUse">
      <circle cx="7" cy="9" r="2.4" fill="#d9e4df" opacity=".34"/>
      <circle cx="25" cy="27" r="3.8" fill="#29443f" opacity=".36"/>
      <circle cx="50" cy="12" r="2.9" fill="#92aaa3" opacity=".38"/>
      <circle cx="52" cy="51" r="4.2" fill="#233f39" opacity=".3"/>
      <path d="M2 54l18-5m9-31l23-7" stroke="#e0e8e4" stroke-width="1.5" opacity=".26"/>
      <path d="M10 19l12-3m7 38l21-6" stroke="#223b36" stroke-width="1.8" opacity=".3"/>
    </pattern>
    <pattern id="wear" width="256" height="256" patternUnits="userSpaceOnUse">
      <ellipse cx="69" cy="188" rx="52" ry="30" fill="#d7e1dc" opacity=".045"/>
      <path d="M142 24c24 36 67 44 95 88" fill="none" stroke="#243e39" stroke-width="11" opacity=".055"/>
    </pattern>
  </defs>
  <rect width="512" height="512" fill="url(#rubber)"/>
  <rect width="512" height="512" fill="url(#chevrons)"/>
  <rect width="512" height="512" fill="url(#micro)"/>
  <rect width="512" height="512" fill="url(#wear)"/>
</svg>
