<svg xmlns="http://www.w3.org/2000/svg" width="512" height="512" viewBox="0 0 512 512">
  <g fill="#241912">
    <path opacity=".33" d="M67 328c4-50 51-83 98-76 35 5 58-10 75-40 27-48 83-69 130-43 46 26 57 82 27 124-24 34-63 42-88 72-31 37-42 85-92 98-55 14-106-25-103-74 2-34-12-45-34-56-9-5-14-3-13-5z"/>
    <path opacity=".24" d="M96 90c37-30 91-26 120 9 24 29 17 69-14 91-35 25-67 6-101 13-42 9-76-27-65-63 7-23 36-31 60-50z"/>
    <path opacity=".21" d="M325 73c32-19 74-9 91 22 18 33-2 70-38 79-31 8-51-10-78-11-33-2-54-34-39-59 11-18 40-17 64-31z"/>
    <circle opacity=".38" cx="421" cy="380" r="25"/>
    <circle opacity=".28" cx="90" cy="247" r="15"/>
    <circle opacity=".31" cx="276" cy="301" r="11"/>
    <circle opacity=".23" cx="178" cy="431" r="13"/>
  </g>
  <g fill="none" stroke="#6a5140" stroke-linecap="round">
    <path d="M91 315c42-30 82-31 119-6 35 24 68 18 94-13 31-36 69-44 108-24" stroke-width="8" opacity=".21"/>
    <path d="M83 123c34-13 67-7 91 16" stroke-width="5" opacity=".17"/>
  </g>
</svg>
