<svg xmlns="http://www.w3.org/2000/svg" width="512" height="512" viewBox="0 0 512 512">
  <g fill="#241912">
    <path opacity=".34" d="M110 77c49-20 102 4 119 45 13 31 39 45 72 39 52-10 101 24 109 75 7 46-29 79-72 87-43 8-64 25-75 64-16 55-76 90-127 65-43-21-51-72-31-111 16-31 11-54-13-80-42-46-40-160 18-184z"/>
    <path opacity=".24" d="M298 89c31-25 77-19 100 12 20 27 13 62-15 81-30 21-57 5-87 10-35 5-63-25-53-55 7-20 35-30 55-48z"/>
    <path opacity=".21" d="M311 356c30-24 74-21 99 6 26 28 16 69-19 85-34 15-58-2-87 4-34 7-66-21-59-52 5-22 42-25 66-43z"/>
    <circle opacity=".35" cx="76" cy="392" r="22"/>
    <circle opacity=".3" cx="429" cy="286" r="16"/>
    <circle opacity=".25" cx="172" cy="207" r="13"/>
  </g>
  <g fill="none" stroke="#6a5140" stroke-linecap="round">
    <path d="M130 111c35 25 54 54 56 88 2 44 32 65 71 62 49-4 87 18 108 55" stroke-width="8" opacity=".21"/>
    <path d="M141 383c31 17 61 18 90 2" stroke-width="5" opacity=".18"/>
  </g>
</svg>
