<svg xmlns="http://www.w3.org/2000/svg" width="512" height="512" viewBox="0 0 512 512">
  <g fill="#241912">
    <path opacity=".34" d="M70 302c13-62 76-100 137-82 34 10 55 4 81-19 42-37 105-25 137 18 33 45 11 101-40 122-39 16-58 42-91 66-48 35-119 28-143-18-18-35-91-38-81-87z"/>
    <path opacity=".22" d="M104 129c35-35 87-41 125-13 27 20 49 15 73-5 34-28 84-17 103 20 18 35-6 75-47 82-39 7-68-9-101 7-48 23-99 13-139-20-27-23-39-47-14-71z"/>
    <path opacity=".26" d="M117 404c31-25 69-29 103-11 31 16 56 12 83-8 32-24 80-18 98 14 20 35-13 70-57 68-39-2-63-15-97-3-49 17-100 5-130-24-13-13-14-25 0-36z"/>
    <circle opacity=".39" cx="92" cy="360" r="18"/>
    <circle opacity=".28" cx="415" cy="357" r="24"/>
    <circle opacity=".3" cx="176" cy="261" r="13"/>
    <circle opacity=".24" cx="337" cy="427" r="11"/>
  </g>
  <g fill="none" stroke="#6a5140" stroke-linecap="round">
    <path d="M104 305c50-37 99-44 145-22 55 27 95-18 146-21" stroke-width="8" opacity=".22"/>
    <path d="M138 157c43-20 83-15 118 10 33 23 67 18 99-5" stroke-width="5" opacity=".18"/>
  </g>
</svg>
