<svg xmlns="http://www.w3.org/2000/svg" width="512" height="512" viewBox="0 0 512 512">
  <g fill="#241912">
    <path opacity=".32" d="M92 98c42-31 101-19 126 20 18 28 43 34 76 19 50-23 105 6 119 55 12 43-17 82-62 93-36 9-51 34-69 64-30 49-94 67-137 34-31-24-27-60-13-94 14-35 4-58-26-82-43-35-55-79-14-109z"/>
    <path opacity=".25" d="M280 337c35-27 84-23 112 7 24 26 21 63-6 87-31 27-71 14-102 28-41 18-83-5-87-42-4-36 47-51 83-80z"/>
    <path opacity=".2" d="M83 330c24-26 64-29 92-7 23 18 28 51 10 74-23 29-54 18-84 31-30 13-61-7-61-36 0-25 22-42 43-62z"/>
    <circle opacity=".36" cx="395" cy="116" r="20"/>
    <circle opacity=".25" cx="329" cy="246" r="15"/>
    <circle opacity=".31" cx="126" cy="266" r="10"/>
  </g>
  <g fill="none" stroke="#6a5140" stroke-linecap="round">
    <path d="M111 128c35 4 65 24 81 51 24 40 62 42 102 23 39-19 74-8 98 20" stroke-width="7" opacity=".2"/>
    <path d="M233 393c41-21 78-14 119 10" stroke-width="5" opacity=".17"/>
  </g>
</svg>
