<svg xmlns="http://www.w3.org/2000/svg" width="512" height="512" viewBox="0 0 512 512">
  <g fill="#241912">
    <path opacity=".33" d="M58 216c18-52 75-79 126-61 34 12 61 1 86-26 36-39 99-45 139-11 41 35 37 92-2 128-29 27-72 31-103 56-36 28-45 83-91 102-57 24-122-11-129-64-5-41 14-67-12-91-15-14-23-30-14-33z"/>
    <path opacity=".23" d="M276 348c37-24 85-17 108 17 25 36 2 81-41 91-38 9-59-15-91-20-38-6-56-45-35-72 13-17 34-3 59-16z"/>
    <path opacity=".2" d="M102 87c25-28 68-34 99-13 27 19 31 53 9 77-24 26-58 13-86 20-32 8-62-17-57-47 3-17 21-22 35-37z"/>
    <circle opacity=".35" cx="413" cy="292" r="23"/>
    <circle opacity=".27" cx="121" cy="420" r="17"/>
    <circle opacity=".32" cx="229" cy="231" r="12"/>
  </g>
  <g fill="none" stroke="#6a5140" stroke-linecap="round">
    <path d="M88 223c44-32 87-37 130-12 39 22 70 14 104-17 28-25 59-31 89-19" stroke-width="8" opacity=".2"/>
    <path d="M126 334c27 28 61 37 101 25" stroke-width="5" opacity=".17"/>
  </g>
</svg>
