<svg xmlns="http://www.w3.org/2000/svg" width="512" height="512" viewBox="0 0 512 512">
  <g fill="#315f59">
    <path d="M39 154c43-54 102-66 151-36 34 20 60 14 87-13 28-28 74-27 111-4 34 21 48 55 28 82-24 33-75 14-108 34-43 26-59 64-119 54-70-12-111-52-150-117z" opacity=".42"/>
    <path d="M227 344c37-35 76-41 114-18 33 20 55 7 83-6 27-13 59 3 64 33 7 39-34 68-73 65-52-4-74 24-123 10-40-11-74-50-65-84z" opacity=".35"/>
    <circle cx="89" cy="372" r="29" opacity=".34"/><circle cx="441" cy="238" r="20" opacity=".31"/>
  </g>
  <g fill="none" stroke="#82aaa0" stroke-linecap="round">
    <path d="M78 148c47-24 92-19 126 6 31 23 57 18 94-8m-59 225c39-19 75-18 108 2 27 16 56 9 87-4" stroke-width="8" opacity=".3"/>
    <path d="M122 247c3 45-8 79-3 116m253-172c-11 48 4 78-6 121" stroke-width="5" opacity=".22"/>
  </g>
</svg>
